<svg width="290" height="721" viewBox="0 0 290 721" fill="none" xmlns="http://www.w3.org/2000/svg">
<path d="M111.5 576.5C27.9001 576.5 10.5001 609 5.00009 632C-0.499993 655 7.00009 689.3 43.0001 704.5C88.0001 723.5 110.875 728.778 194.5 704.5C225.5 695.5 240 692.5 270.5 659.5C301 626.5 289 574 270.5 519.5C252 498 216 576.5 111.5 576.5Z" fill="#AEA9DD"/>
<path d="M148.853 109.753C144.067 112.903 140.042 117.081 137.071 121.982C134.1 126.884 132.257 132.386 131.675 138.09C129.41 157.96 129.637 192.066 129.637 192.066L144.471 199.558H157.708L148.853 109.753Z" fill="#B963AB"/>
<path d="M110.658 249.906L157.199 210.802L141.753 195.579C141.753 195.579 110.047 236.701 103.818 236.112C97.5905 235.523 110.658 249.906 110.658 249.906Z" fill="#FD4E49"/>
<path d="M99.5835 581.841C101.452 583.825 86.6519 620.561 86.6519 620.561L107.318 626.466L117.599 583.394L99.5835 581.841Z" fill="#FC7575"/>
<path d="M148.536 261.796L136.748 279.989C136.748 279.989 120.895 428.62 117.056 445.361C113.217 462.102 92.2344 603.389 92.2344 603.389L113.965 611.436C113.965 611.436 155.296 494.429 153.213 478.934C151.129 463.44 200.376 319.116 200.376 319.116L151.163 261.502L148.536 261.796Z" fill="#3B4F5C"/>
<path d="M157.742 270.751C157.742 270.751 185.621 437.143 187.795 474.298C189.969 511.453 169.677 614.576 169.677 614.576L205.438 615.925C205.438 615.925 236.34 511.102 229.217 480.793C222.74 453.318 230.701 341.796 232.252 321.077C232.41 318.862 232.219 316.636 231.686 314.48L220.193 267.849L157.742 270.751Z" fill="url(#paint0_linear_3_540)"/>
<path d="M197.806 614.304C197.806 614.304 198.474 624.993 197.987 634.072C197.5 643.151 201.599 650.552 188.928 651.89C176.256 653.227 163.076 649.441 162.091 643.513C161.105 637.585 174.218 624.245 174.547 618.351C174.875 612.457 178.578 610.224 180.582 612.184C182.587 614.145 197.806 614.304 197.806 614.304Z" fill="#004F70"/>
<path d="M197.239 648.002C194.975 650.076 191.849 650.269 188.43 650.269C181.137 650.269 165.216 649.294 162.102 643.468C162.047 644.311 162.182 645.156 162.495 645.94C162.808 646.725 163.293 647.429 163.914 648.002C172.508 656.695 195.745 655.415 197.239 648.002Z" fill="#7EFCCB"/>
<path d="M176.268 625.82C176.019 631.487 184.67 636.565 187.841 631.555C187.897 631.465 192.279 619.087 192.687 615.301C192.925 613.035 194.601 609.169 188.815 608.047C183.028 606.925 178.804 608.931 178.703 610.949C178.623 612.298 176.653 617.308 176.268 625.82Z" fill="#86B3C6"/>
<path d="M189.301 629.334C189.301 629.334 189.675 612.808 192.347 612.241C195.02 611.674 198.213 613.488 198.213 613.488C198.213 613.488 196.956 628.223 193.684 630.852C190.411 633.482 189.301 629.334 189.301 629.334Z" fill="#004F70"/>
<path d="M174.897 616.73C174.895 616.838 174.92 616.946 174.969 617.043C175.018 617.14 175.091 617.223 175.181 617.285C182.439 622.567 193.072 618.033 193.525 617.84C193.61 617.807 193.688 617.757 193.752 617.692C193.817 617.627 193.868 617.55 193.901 617.465C193.934 617.379 193.949 617.288 193.944 617.196C193.94 617.105 193.917 617.015 193.876 616.934C193.775 616.768 193.616 616.645 193.43 616.589C193.244 616.532 193.045 616.546 192.868 616.627C192.766 616.627 182.677 620.98 176.132 616.231C175.971 616.119 175.776 616.068 175.581 616.086C175.386 616.105 175.204 616.192 175.067 616.333C174.968 616.442 174.908 616.582 174.897 616.73Z" fill="#7EFCCB"/>
<path d="M174.128 623.372C174.124 623.477 174.145 623.581 174.19 623.676C174.236 623.771 174.304 623.853 174.388 623.916C178.918 627.316 191.589 624.403 192.121 624.278C192.213 624.264 192.301 624.231 192.379 624.18C192.456 624.129 192.523 624.063 192.573 623.985C192.623 623.906 192.656 623.818 192.67 623.726C192.684 623.634 192.678 623.541 192.653 623.451C192.591 623.269 192.461 623.117 192.29 623.029C192.119 622.94 191.921 622.921 191.736 622.975C188.339 623.791 178.589 625.389 175.373 622.896C175.217 622.777 175.024 622.719 174.828 622.731C174.633 622.744 174.448 622.826 174.309 622.964C174.202 623.074 174.138 623.218 174.128 623.372Z" fill="#7EFCCB"/>
<path d="M173.369 628.064C173.363 628.155 173.378 628.245 173.411 628.329C173.444 628.413 173.496 628.489 173.561 628.552C177.094 632.031 190.637 629.798 192.166 629.526C192.259 629.517 192.349 629.488 192.43 629.443C192.511 629.397 192.582 629.335 192.639 629.26C192.695 629.186 192.735 629.101 192.757 629.01C192.779 628.919 192.782 628.825 192.766 628.733C192.711 628.551 192.59 628.395 192.427 628.297C192.264 628.198 192.07 628.164 191.883 628.2C187.954 628.892 177.162 630.116 174.682 627.645C174.533 627.519 174.345 627.451 174.15 627.451C173.955 627.451 173.767 627.519 173.618 627.645C173.551 627.695 173.494 627.758 173.452 627.83C173.409 627.902 173.38 627.981 173.369 628.064Z" fill="#7EFCCB"/>
<path d="M84.5229 623.632C79.3593 626.795 75.0902 621.751 75.1468 621.671C80.2538 613.907 83.0735 606.936 84.3305 605.236C85.678 603.355 87.5577 600.838 92.2571 603.389C96.9564 605.939 100.954 611.402 99.1193 612.547C97.8963 613.306 92.2343 618.838 84.5229 623.632Z" fill="#86B3C6"/>
<path d="M117 638.776L95.892 639.025C87.2067 639.127 73.3465 640.226 68.9982 640.272C64.6499 640.317 48.7853 631.351 49.7479 628.348C50.7104 625.344 65.0235 625.933 72.3953 622.488C79.767 619.042 89.5168 608.886 92.8573 609.033C95.6542 609.181 109.967 611.98 112.492 614.191C115.018 616.401 119.14 636.792 117 638.776Z" fill="#004F70"/>
<path d="M53.4847 626.466C56.8252 627.282 62.6116 633.267 71.2629 635.262C77.9892 636.815 105.46 633.641 117.362 632.133C117.724 635.477 117.69 638.118 116.988 638.775L95.8806 639.025C87.1953 639.127 73.3351 640.226 68.9868 640.272C64.6385 640.317 48.774 631.351 49.7365 628.348C50.0649 627.486 51.4691 626.919 53.4847 626.466Z" fill="#7EFCCB"/>
<path d="M80.8089 626.772C80.8563 626.719 80.8913 626.655 80.9109 626.587C80.9305 626.518 80.9343 626.446 80.9222 626.375C79.9824 621.331 72.9957 621.15 72.7466 621.139C72.6177 621.143 72.4936 621.188 72.3919 621.268C72.2902 621.347 72.2161 621.457 72.1804 621.581C72.1623 621.632 72.1568 621.686 72.1641 621.74C72.1714 621.794 72.1914 621.845 72.2224 621.889C72.2534 621.934 72.2945 621.97 72.3424 621.995C72.3902 622.02 72.4434 622.034 72.4975 622.034C72.5654 622.034 79.1783 622.216 80.0163 626.738C80.0312 626.792 80.0581 626.841 80.0951 626.882C80.132 626.924 80.178 626.956 80.2294 626.977C80.2809 626.998 80.3364 627.006 80.3917 627.002C80.447 626.998 80.5006 626.981 80.5485 626.953C80.65 626.917 80.7399 626.855 80.8089 626.772Z" fill="#7EFCCB"/>
<path d="M84.1497 623.145C84.1997 623.093 84.2376 623.03 84.2611 622.962C84.2845 622.893 84.2929 622.82 84.2854 622.748C83.7872 619.518 76.5965 617.863 76.2908 617.795C76.1657 617.777 76.0383 617.8 75.9278 617.862C75.8174 617.923 75.73 618.019 75.6793 618.135C75.6487 618.182 75.6297 618.235 75.6237 618.29C75.6177 618.346 75.6251 618.402 75.645 618.454C75.6649 618.506 75.6967 618.552 75.7382 618.59C75.7796 618.627 75.8295 618.654 75.8833 618.668C77.8423 619.11 83.0057 620.765 83.3681 623.088C83.3681 623.315 83.6285 623.417 83.889 623.326C83.9904 623.29 84.0807 623.228 84.1497 623.145Z" fill="#7EFCCB"/>
<path d="M86.6522 620.561C86.7313 620.465 86.7751 620.345 86.7766 620.221C86.7766 617.24 79.4956 614.927 78.669 614.678C78.5444 614.654 78.4155 614.67 78.3013 614.726C78.187 614.781 78.0934 614.871 78.0348 614.984C78.0014 615.028 77.9792 615.08 77.9698 615.135C77.9604 615.19 77.964 615.246 77.9806 615.299C77.9972 615.353 78.0262 615.401 78.0652 615.441C78.1041 615.481 78.152 615.51 78.2048 615.528C80.3223 616.185 85.8143 618.339 85.8596 620.459C85.8596 620.697 86.0634 620.833 86.3238 620.765C86.4488 620.726 86.5619 620.655 86.6522 620.561Z" fill="#7EFCCB"/>
<path d="M192.019 636.01C192.019 636.01 194.782 644.703 192.846 646.268C190.909 647.832 166.959 646.517 167.163 642.811C167.367 639.104 173.154 632.054 175.317 631.589C177.479 631.124 192.019 636.01 192.019 636.01Z" fill="#0B678D"/>
<path d="M170.028 99.3822C154.051 102.692 140.247 113.256 134.019 128.354C132.658 131.435 131.889 134.746 131.754 138.113C131.754 150.15 137.654 192.802 137.654 214.327C137.654 235.851 130.599 313.358 130.599 313.358C130.599 313.358 161.343 317.211 200.953 309.085C222.163 304.732 233.792 314.276 233.792 314.276C233.792 314.276 223.318 220.017 216.92 178.113C210.522 136.208 218.437 107.838 213.081 101.513C209.333 97.1379 189.369 95.3811 170.028 99.3822Z" fill="#F7931E"/>
<g style="mix-blend-mode:multiply" opacity="0.31">
<path d="M220.328 258.226C221.812 255.619 224.042 249.566 225.243 241.077C222.412 217.909 219.355 194.174 216.909 178.113C216.29 174.01 215.791 170.035 215.414 166.189L207.227 157.484C207.227 157.484 199.21 202.97 189.698 221.32C182.179 235.817 147.992 262.987 133.928 273.777C133.566 278.22 133.215 282.539 132.875 286.585C132.875 286.585 195.122 302.714 220.328 258.226Z" fill="#F7931E"/>
</g>
<path d="M162.532 55.3131L159.135 99.5975C158.954 102.012 156.621 113.981 158.467 115.557C162.725 119.218 176.981 119.399 184.002 114.491C190.117 110.218 182.552 56.0838 182.552 56.0838C182.552 56.0838 170.991 54.0209 162.532 55.3131Z" fill="#FC7575"/>
<path d="M182.586 56.0838C182.586 56.0838 182.858 57.8747 183.266 60.8217C182.555 65.9695 181.338 71.0343 179.631 75.9421C177.196 82.1535 168.002 92.162 159.724 92.3434L162.532 55.3131C170.991 54.0209 182.586 56.0838 182.586 56.0838Z" fill="#FD5E5A"/>
<path d="M185.327 2.56166C189.007 8.43301 191.77 16.4693 185.916 20.119C192.495 17.104 190.626 7.8096 187.546 1.29218L185.327 2.56166Z" fill="#001959"/>
<path d="M157.437 23.338C157.437 23.338 148.151 23.9841 146.52 35.6021C144.89 47.2201 148.728 79.8866 157.776 83.3663C166.824 86.8461 178.306 76.2709 180.911 69.9915C183.628 63.44 184.625 52.9895 184.625 52.9895C184.625 52.9895 187.354 10.8359 157.437 23.338Z" fill="#FC7575"/>
<path d="M192.925 69.5947C192.925 69.5947 190.66 72.0657 188.395 68.5633C188.395 68.5633 183.175 60.5044 188.328 54.8597C193.48 49.215 201.236 41.5188 200.523 30.6829C199.81 19.847 186.935 19.2349 186.935 19.2349C186.935 19.2349 185.723 2.6183 167.333 7.15216C167.333 7.15216 164.095 3.4004 153.507 3.29839C142.92 3.19638 145.127 9.11306 139.092 7.83225C133.056 6.55143 132.468 1.71153 135.118 0C135.118 0 124.417 4.22783 122.661 12.5588C120.906 20.8898 136.918 22.1706 136.918 22.1706C136.918 22.1706 123.85 23.1907 133.441 29.2321C143.033 35.2734 147.834 35.4321 154.243 29.8441C160.652 24.2562 163.959 23.0433 167.107 24.5509C170.255 26.0584 168.738 33.1879 173.516 34.2193C178.295 35.2508 180.741 48.2063 180.741 48.2063C180.741 48.2063 184.545 47.1635 183.877 56.1405C183.209 65.1176 181.703 70.5582 187.105 71.7257C192.506 72.8931 192.925 69.5947 192.925 69.5947Z" fill="#001959"/>
<path d="M183.753 37.971C186.618 37.7783 193.344 40.238 187.15 48.943C180.956 57.648 176.517 47.9455 177.366 44.0237C177.671 42.4758 178.449 41.0612 179.594 39.9766C180.738 38.8919 182.192 38.1909 183.753 37.971Z" fill="#FC7575"/>
<path d="M155.93 49.3964C156.304 54.8257 155.987 60.0736 156.848 65.1856C158.082 65.2649 159.328 65.3896 160.573 65.5936C159.019 66.0045 157.442 66.3262 155.851 66.5571C154.736 60.8885 154.763 55.0543 155.93 49.3964Z" fill="#001959"/>
<path d="M158.206 47.9342C158.361 47.9696 158.523 47.9447 158.659 47.8647C158.796 47.7847 158.897 47.6555 158.942 47.5035C159.267 46.7357 159.757 46.049 160.378 45.4926C160.998 44.9362 161.734 44.5237 162.532 44.2845C164.967 43.4344 170.776 45.2479 172.814 46.0187C172.892 46.0477 172.975 46.0611 173.058 46.058C173.141 46.0549 173.223 46.0354 173.299 46.0007C173.375 45.966 173.443 45.9166 173.499 45.8555C173.556 45.7944 173.6 45.7228 173.629 45.6446C173.66 45.5658 173.675 45.4817 173.673 45.3971C173.67 45.3125 173.651 45.2293 173.616 45.1522C173.582 45.0751 173.532 45.0058 173.47 44.9482C173.408 44.8907 173.335 44.8462 173.256 44.8172C172.95 44.7039 165.487 41.8929 162.113 43.0717C161.123 43.3683 160.214 43.8869 159.455 44.5881C158.695 45.2892 158.106 46.1545 157.731 47.1181C157.705 47.1985 157.695 47.2833 157.702 47.3675C157.708 47.4518 157.732 47.5338 157.771 47.6087C157.81 47.6837 157.864 47.7501 157.929 47.804C157.994 47.858 158.069 47.8984 158.15 47.9229L158.206 47.9342Z" fill="#001959"/>
<path d="M167.084 68.5633C167.084 68.5633 157.674 71.1022 152.443 69.572C152.443 69.572 153.167 73.8112 156.236 75.126C159.305 76.4408 165.725 74.888 167.084 68.5633Z" fill="white"/>
<path d="M187.15 43.8197C187.15 43.8197 186.278 50.1671 183.164 49.9291C180.05 49.691 179.574 44.9078 181.794 42.6635C184.013 40.4193 187.535 42.0175 187.15 43.8197Z" fill="#FD5E5A"/>
<path d="M160.233 50.5865C160.335 50.9171 160.527 51.2123 160.788 51.4383C161.05 51.6643 161.369 51.8119 161.71 51.864C162.052 51.9162 162.401 51.8708 162.718 51.7331C163.035 51.5954 163.306 51.371 163.501 51.0857C163.696 50.8004 163.807 50.4658 163.82 50.1203C163.834 49.7749 163.75 49.4327 163.577 49.1331C163.405 48.8334 163.152 48.5885 162.847 48.4266C162.542 48.2646 162.197 48.1922 161.853 48.2176C161.328 48.3247 160.866 48.6318 160.564 49.0739C160.262 49.516 160.143 50.0585 160.233 50.5865Z" fill="#001959"/>
<path d="M147.494 50.8245C147.597 51.1538 147.791 51.4474 148.053 51.6716C148.315 51.8958 148.635 52.0415 148.976 52.0921C149.317 52.1427 149.665 52.0961 149.981 51.9577C150.297 51.8192 150.567 51.5945 150.761 51.3093C150.955 51.024 151.065 50.6899 151.078 50.3451C151.091 50.0003 151.007 49.6588 150.835 49.3597C150.663 49.0607 150.41 48.8162 150.106 48.6542C149.801 48.4923 149.457 48.4196 149.114 48.4443C148.587 48.5513 148.123 48.8601 147.82 49.3048C147.518 49.7494 147.401 50.2948 147.494 50.8245Z" fill="#001959"/>
<path d="M152.33 47.3788C152.384 47.4444 152.424 47.5203 152.448 47.6019C152.472 47.6835 152.48 47.7692 152.471 47.8538C152.461 47.9384 152.435 48.0202 152.393 48.0944C152.351 48.1686 152.295 48.2336 152.228 48.2856C152.155 48.3431 152.071 48.3841 151.981 48.4056C151.891 48.4272 151.797 48.4288 151.707 48.4102C151.56 48.3805 151.427 48.3003 151.333 48.1835C150.71 47.4128 148.774 45.3272 147.291 44.9985C146.928 44.9305 146.555 44.8738 146.158 44.8285V43.5477C146.63 43.5895 147.099 43.6576 147.562 43.7517C149.782 44.2391 152.25 47.2541 152.33 47.3788Z" fill="#001959"/>
<path d="M93.2421 126.823C91.7021 123.174 44.7994 176.152 39.2281 181.728C33.6568 187.305 22.2426 141.218 19.2079 130.235C16.5468 120.499 6.67244 119.977 6.67244 127.753C6.67244 127.753 13.1497 189.855 24.5753 206.495C39.2961 227.917 81.5903 159.354 81.5903 159.354C81.5903 159.354 94.7822 130.462 93.2421 126.823Z" fill="#FD5E5A"/>
<path d="M92.2344 35.0354C92.2344 35.0354 81.1711 39.5126 75.8037 45.1119C70.4363 50.7112 68.0017 61.8305 69.0662 70.6262C70.1306 79.4219 72.4633 81.0087 72.4633 81.0087C72.4633 81.0087 67.3788 93.3295 68.9188 103.871C70.4588 114.412 81.9639 124.5 89.4828 125.939C89.4828 125.939 79.0537 113.471 80.4239 106.92C80.4239 106.92 87.9315 117.631 95.4505 121.779C102.969 125.928 139.319 162.448 162.827 136.367C162.827 136.367 143.576 127.696 149.895 110.433C156.213 93.1708 138.854 77.495 138.854 77.495C138.854 77.495 144.516 62.5446 134.562 52.23C124.609 41.9155 97.0017 30.0821 92.2344 35.0354Z" fill="#170F33"/>
<path d="M63.9935 482.017C62.0458 483.967 125.289 593.38 125.289 605.769C125.289 618.158 120.759 625.208 116.875 629.096C112.991 632.983 91.6345 636.225 91.6345 640.113C91.6345 644.001 129.184 636.871 129.184 636.871C129.184 636.871 150.846 612.853 147.087 607.084C146.453 606.109 145.83 605.066 145.23 603.955C139.149 592.689 133.713 576.31 133.713 570.133C133.713 559.762 107.171 459.337 107.171 459.337C107.171 459.337 65.9298 480.068 63.9935 482.017Z" fill="#D44F4B"/>
<path d="M151.956 618.634C151.956 618.634 151.956 616.367 147.098 607.084C137.79 613.726 134.529 625.775 126.285 629.186C123.465 630.32 119.581 630.433 115.607 630.036C109.662 633.516 91.6344 636.543 91.6344 640.113C91.6344 644.001 128.368 638.685 128.368 638.685L151.956 618.634Z" fill="#42210B"/>
<path d="M142.772 488.489C142.772 488.489 147.302 522.833 144.063 550.694C140.825 578.555 117.758 624.8 117.758 637.109C117.758 642.165 118.166 647.413 118.63 652.094C119.015 655.982 109.899 665.559 102.641 665.809C97.3414 665.99 93.2084 657.591 93.7406 656.106C97.5567 645.531 105.223 634.944 105.223 623.236C105.223 607.685 102.641 537.716 105.88 511.793C109.118 485.871 111.055 447.639 111.055 447.639L142.772 488.489Z" fill="#FC7575"/>
<path d="M102.12 661.909C98.8023 661.909 95.6997 658.713 93.7407 656.151C92.4286 659.523 91.7157 663.098 91.6344 666.715C91.6344 680.963 120.114 670.592 120.114 666.715C120.114 664.448 119.298 658.781 118.63 652.128C118.63 652.128 107.669 661.909 102.12 661.909Z" fill="#64132C"/>
<path d="M149.465 286.733C148.163 282.539 136.227 259.745 135.446 255.687C114.701 259.144 97.9192 259.087 75.8493 255.483C75.5776 257.75 33.7025 494.644 37.9036 498.861C42.1047 503.077 160.256 516.996 190.672 495.619C190.672 495.619 161.762 326.256 149.465 286.733Z" fill="#8D3131"/>
<path d="M149.465 286.733C148.162 282.539 136.227 259.745 135.446 255.687C126.757 257.186 117.967 258.027 109.152 258.203C124.666 289.94 150.62 353.131 141.753 405.225C134.381 448.614 109.209 484.307 90.0378 506.103C127.112 508.563 173.256 507.894 190.671 495.653C190.671 495.619 161.762 326.256 149.465 286.733Z" fill="#821515"/>
<path d="M135.446 255.687C128.901 221.536 141.753 177.671 141.753 168.41C141.753 158.039 134.698 124.692 124.983 124.692H93.3668C93.3668 124.692 63.9252 159.479 63.9252 177.614C63.9252 194.208 78.646 231.261 75.7811 255.494C97.8963 259.076 114.701 259.144 135.446 255.687Z" fill="#64132C"/>
<path d="M90.966 139.201L93.2308 89.7817L113.512 82.1875L117.158 126.54C112.9 130.609 86.0855 161.156 90.966 139.201Z" fill="#FD5E5A"/>
<path d="M114.304 91.6973L113.523 82.1875L93.2422 89.7817L92.3138 109.935C101.758 108.529 109.707 98.4527 114.304 91.6973Z" fill="#FD4642"/>
<path d="M86.5726 44.0804C86.5726 44.0804 78.465 46.9707 78.465 58.022C78.465 58.022 79.3481 83.2983 89.4376 95.9478C96.8433 105.208 106.706 98.2147 110.828 94.1115C116.841 88.0929 115.131 79.9092 115.131 68.8693C115.131 57.8293 97.6472 36.2368 86.5726 44.0804Z" fill="#FC7575"/>
<path d="M99.8892 70.8302C99.9179 71.2424 100.066 71.6372 100.316 71.9661C100.566 72.2949 100.907 72.5435 101.296 72.6812C101.685 72.8189 102.106 72.8398 102.507 72.7412C102.908 72.6426 103.271 72.4289 103.552 72.1263C103.833 71.8237 104.02 71.4455 104.089 71.0381C104.158 70.6308 104.107 70.2121 103.942 69.8335C103.776 69.4549 103.504 69.133 103.158 68.9073C102.812 68.6816 102.408 68.5621 101.996 68.5633C101.418 68.5898 100.874 68.8421 100.48 69.266C100.086 69.6899 99.8738 70.2515 99.8892 70.8302Z" fill="#281E67"/>
<path d="M82.8811 72.9384C82.9098 73.3506 83.0583 73.7454 83.3082 74.0743C83.5581 74.4032 83.8985 74.6517 84.2877 74.7894C84.6769 74.9272 85.098 74.948 85.4989 74.8494C85.8997 74.7508 86.263 74.5371 86.5441 74.2345C86.8253 73.9319 87.0118 73.5537 87.081 73.1464C87.1502 72.739 87.0991 72.3203 86.9337 71.9417C86.7683 71.5631 86.4957 71.2412 86.1499 71.0155C85.8041 70.7899 85.4002 70.6703 84.9874 70.6715C84.4147 70.7117 83.8784 70.9682 83.4874 71.389C83.0963 71.8099 82.8797 72.3637 82.8811 72.9384Z" fill="#281E67"/>
<path d="M107.884 70.1728C107.884 70.1728 103.887 67.5431 100.92 68.2912C97.953 69.0393 97.5227 70.8302 97.5227 70.8302C99.1681 69.6726 101.196 69.1936 103.185 69.4927C106.4 70.0141 107.884 70.1728 107.884 70.1728Z" fill="#281E67"/>
<path d="M78.5326 74.1739C78.5326 74.1739 81.7372 70.6262 84.7833 70.5808C87.8294 70.5355 88.6789 72.1904 88.6789 72.1904C86.8019 71.504 84.7351 71.5526 82.8923 72.3264C79.9255 73.6412 78.5326 74.1739 78.5326 74.1739Z" fill="#281E67"/>
<path d="M91.2832 75.6814C90.8859 77.8609 90.3063 80.0032 89.5506 82.0855C90.6934 82.7809 91.9395 83.2897 93.2421 83.593C89.845 83.729 88.8372 82.3575 88.7126 82.3009C89.4093 80.0354 90.2684 77.8232 91.2832 75.6814Z" fill="#281E67"/>
<path d="M99.5381 78.6511C99.5381 80.4307 101.86 81.8815 104.713 81.8815C107.567 81.8815 109.888 80.4307 109.888 78.6511C109.888 76.8716 107.567 75.4207 104.713 75.4207C101.86 75.4207 99.5381 76.8602 99.5381 78.6511Z" fill="#FD5E5A"/>
<path d="M82.1565 76.9282C84.3306 76.9282 86.0858 78.2884 86.0858 79.9659C85.9873 80.7647 85.609 81.5027 85.0181 82.0486C84.4271 82.5944 83.6618 82.9127 82.8584 82.9469C82.2016 80.9747 81.6468 78.9798 81.1712 77.0189C81.4962 76.9596 81.826 76.9293 82.1565 76.9282Z" fill="#FD5E5A"/>
<path d="M80.6165 41.7568C80.6165 41.7568 79.2012 57.0019 92.6311 57.9994C100.51 58.5144 108.101 61.1671 114.588 65.673L120.567 83.6044C120.567 83.6044 123.465 69.7648 123.069 59.6089C122.673 49.4531 108.201 35.3414 98.5874 34.0493C88.9735 32.7571 80.6165 41.7568 80.6165 41.7568Z" fill="#281E67"/>
<path d="M112.753 68.0759C112.753 68.0759 113.704 64.6755 116.648 65.4576C119.593 66.2397 118.143 74.8654 116.648 76.3729C115.154 77.8804 109.854 76.7016 112.753 68.0759Z" fill="#FC7575"/>
<path d="M113.523 69.7534C113.523 69.7534 115.267 65.6389 116.648 67.0217C118.03 68.4046 116.365 74.4233 115.165 74.4233C113.965 74.4233 113.523 69.7534 113.523 69.7534Z" fill="#FD5E5A"/>
<path d="M100.524 88.3762C100.875 88.1156 100.761 88.0249 101.022 88.3762C102.686 90.6432 91.5437 93.5108 91.5437 90.6432C91.5437 90.0764 95.1901 92.1053 100.524 88.3762Z" fill="#281E67"/>
<path d="M106.457 64.9135C106.457 64.9135 101.508 63.1339 99.5381 63.1339C97.5678 63.1339 94.8615 65.4009 95.3711 66.7384C95.8807 68.0759 98.2586 64.4714 99.9006 64.4714C101.543 64.4714 106.457 64.9135 106.457 64.9135Z" fill="#281E67"/>
<path d="M80.5711 69.232C80.5711 69.232 81.7035 66.353 83.6398 65.7749C85.5762 65.1968 88.781 66.591 88.6678 68.0418C88.5545 69.4927 85.2705 66.7497 83.7078 67.2257C82.5411 67.6825 81.4754 68.3642 80.5711 69.232Z" fill="#281E67"/>
<path d="M8.1786 134.338C8.1786 134.338 4.58909 112.009 3.19628 102.239C1.80346 92.468 -2.46569 90.9039 1.95056 86.8687C1.95056 86.8687 7.61252 102.556 8.57504 102.125C9.53755 101.694 4.94001 76.5429 10.1489 75.2054C15.3578 73.8679 11.1342 99.0081 13.6254 100.006C16.1166 101.003 16.4788 68.6879 21.0875 70.5355C25.6963 72.383 16.9319 98.5661 20.9744 96.8772C25.017 95.1884 25.5039 92.7968 28.5613 91.5273C31.6187 90.2578 41.3571 98.26 40.4512 100.482C39.5453 102.703 32.3661 97.4326 28.8784 96.0158C25.3907 94.599 22.5937 105.537 22.639 108.869C22.6843 112.202 23.9637 116.044 28.4366 115.013C32.9095 113.981 48.2646 118.662 47.019 121.734C45.7734 124.806 35.1628 118.912 30.1125 121.043C25.0621 123.174 19.0946 125.089 19.2079 130.201C19.3211 135.313 8.1786 134.338 8.1786 134.338Z" fill="#FD5E5A"/>
<path d="M133.849 125.781C131.82 125.706 129.828 126.345 128.22 127.587C126.613 128.83 125.491 130.597 125.051 132.581C121.823 146.738 122.095 181.547 120.6 191.442C119.096 200.716 116.993 209.882 114.304 218.883C114.304 218.883 135.57 214.882 141.753 193.437C147.936 171.992 145.886 128.274 138.922 126.563C137.26 126.139 135.561 125.877 133.849 125.781Z" fill="#FD5E5A"/>
<path d="M86.0858 47.2201C86.0858 47.2201 112.515 61.0937 114.927 67.4411C117.339 73.7885 119.083 84.0464 113.523 104.494C107.963 124.942 133.623 133.125 141.278 126.71C148.932 120.295 147.381 106.682 141.278 107.69C141.278 107.69 138.356 113.902 133.589 109.13C128.821 104.358 130.611 86.4607 133.804 75.6814C138.786 58.7588 106.457 19.3595 86.0858 47.2201Z" fill="#281E67"/>
<path d="M92.8461 137.478L120.68 196.055C120.68 196.055 126.863 231.408 103.694 214.191C100.529 211.8 98.2854 208.389 97.3416 204.534L81.5564 142.499L92.8461 137.478Z" fill="#B9BCFC"/>
<path d="M72.4408 113.018C73.1793 113.133 73.9355 113.026 74.6126 112.709C75.2898 112.392 75.8571 111.881 76.2424 111.239C76.6276 110.598 76.8134 109.857 76.7756 109.11C76.7379 108.362 76.4783 107.643 76.0303 107.044L67.2204 95.381C66.6013 94.6398 65.7212 94.1654 64.7622 94.0559C63.8031 93.9465 62.8388 94.2105 62.0689 94.7932C61.299 95.3759 60.7825 96.2327 60.6264 97.1862C60.4703 98.1396 60.6866 99.1167 61.2304 99.9149L70.04 111.567C70.6225 112.343 71.4832 112.863 72.4408 113.018Z" fill="#8B8DBD"/>
<path d="M61.955 97.8293C62.6758 97.8171 63.3668 97.5385 63.8949 97.0472C64.4229 96.5558 64.7506 95.8863 64.8152 95.1676C64.8799 94.4488 64.6768 93.7315 64.2449 93.1537C63.813 92.5758 63.1829 92.1782 62.4758 92.0373L51.5372 90.0084C50.7893 89.8983 50.0278 90.0827 49.4129 90.5228C48.798 90.963 48.3774 91.6245 48.2396 92.3685C48.1018 93.1126 48.2575 93.8811 48.674 94.5126C49.0904 95.1441 49.7352 95.5895 50.4729 95.7551L61.4228 97.7726C61.5979 97.8089 61.7762 97.8279 61.955 97.8293Z" fill="#8B8DBD"/>
<path d="M44.2897 104.324C44.8895 104.557 45.5542 104.558 46.1547 104.327C46.7553 104.097 47.249 103.651 47.5398 103.077L51.6161 95.143C51.9289 94.528 51.9854 93.8141 51.7732 93.1575C51.5609 92.501 51.0972 91.9555 50.4838 91.6406C50.1807 91.4843 49.8499 91.3896 49.5101 91.362C49.1703 91.3345 48.8283 91.3745 48.5041 91.4799C48.1798 91.5853 47.8796 91.7539 47.6208 91.976C47.362 92.1981 47.1498 92.4694 46.9963 92.7741L42.9196 100.708C42.7632 101.013 42.6686 101.345 42.6409 101.686C42.6132 102.027 42.6529 102.37 42.7582 102.695C42.8634 103.021 43.0321 103.322 43.2541 103.582C43.4762 103.842 43.7472 104.056 44.052 104.211L44.2897 104.324Z" fill="#8B8DBD"/>
<path d="M78.6461 121.394C79.2326 121.391 79.8103 121.252 80.3334 120.986C82.1791 120.057 81.4656 117.79 80.5258 115.942L74.6942 101.434C74.2256 100.576 73.4419 99.9343 72.509 99.6448C71.5762 99.3552 70.5673 99.4404 69.6961 99.8823C68.8249 100.324 68.1597 101.088 67.8413 102.012C67.523 102.937 67.5766 103.949 67.9906 104.834L75.2944 119.331C75.6071 119.952 76.0861 120.474 76.678 120.838C77.2699 121.203 77.9513 121.395 78.6461 121.394Z" fill="#B9BCFC"/>
<path d="M67.4694 101.343C67.9568 101.307 68.4208 101.119 68.7964 100.806C69.172 100.493 69.4406 100.071 69.5644 99.5975C69.8372 98.9143 69.8738 98.1594 69.6687 97.4529C69.4635 96.7463 69.0282 96.1288 68.4321 95.6984L57.029 89.1469C56.7365 88.9969 56.4133 88.9167 56.0846 88.9126C55.756 88.9085 55.4309 88.9807 55.1347 89.1234C54.8386 89.2661 54.5795 89.4756 54.3778 89.7353C54.176 89.995 54.0369 90.298 53.9717 90.6205C53.7009 91.3039 53.6652 92.0582 53.8702 92.7643C54.0752 93.4703 54.5094 94.0879 55.104 94.5196L66.5071 101.082C66.7997 101.252 67.1314 101.342 67.4694 101.343Z" fill="#B9BCFC"/>
<path d="M45.5581 96.4239C45.8473 96.425 46.1332 96.3631 46.3961 96.2425L52.8392 93.2615C53.0924 93.161 53.3225 93.0099 53.5154 92.8174C53.7083 92.6248 53.8599 92.395 53.961 92.1419C54.0622 91.8887 54.111 91.6176 54.104 91.345C54.097 91.0725 54.0345 90.8042 53.9204 90.5566C53.8064 90.309 53.643 90.0872 53.4405 89.9049C53.2379 89.7226 53.0004 89.5835 52.7424 89.4961C52.4844 89.4088 52.2114 89.375 51.9399 89.3968C51.6683 89.4186 51.4041 89.4956 51.1633 89.6231L44.7202 92.5928C44.3036 92.7832 43.9648 93.1108 43.76 93.5209C43.5553 93.931 43.497 94.3989 43.595 94.8467C43.6929 95.2946 43.9411 95.6953 44.2983 95.9823C44.6555 96.2692 45.1001 96.4251 45.5581 96.4239Z" fill="#B9BCFC"/>
<path d="M76.7893 106.206L89.3358 135.857L82.3378 140.391C82.3378 140.391 69.2588 120.283 68.636 115.455C68.0132 110.626 76.7893 106.206 76.7893 106.206Z" fill="#B9BCFC"/>
<path d="M90.9661 140.391C90.9661 143.315 89.1545 145.684 86.9237 145.684C84.6929 145.684 82.8811 143.315 82.8811 140.391C82.8811 137.467 84.6929 135.086 86.9237 135.086C89.1545 135.086 90.9661 137.455 90.9661 140.391Z" fill="#757AD8"/>
<path d="M50.971 124.386C50.7587 124.389 50.5481 124.347 50.3531 124.263C50.158 124.179 49.9828 124.055 49.8386 123.899C49.6945 123.756 49.5799 123.585 49.5019 123.398C49.4238 123.21 49.3835 123.009 49.3835 122.805C49.3835 122.602 49.4238 122.401 49.5019 122.213C49.5799 122.025 49.6945 121.855 49.8386 121.711L55.8966 115.942C56.1969 115.658 56.5977 115.505 57.0107 115.517C57.4238 115.528 57.8153 115.704 58.0992 116.004C58.383 116.305 58.5357 116.706 58.5241 117.12C58.5124 117.533 58.3373 117.925 58.0369 118.209L51.9673 123.967C51.6967 124.223 51.3428 124.372 50.971 124.386Z" fill="#B9BCFC"/>
<path d="M60.5282 117.733C59.8054 117.726 59.1078 117.467 58.5557 117C58.0036 116.533 57.6316 115.888 57.504 115.175C57.3765 114.463 57.5014 113.729 57.8571 113.099C58.2128 112.469 58.7772 111.983 59.4525 111.726L72.033 107.033C72.4137 106.891 72.8187 106.825 73.2248 106.84C73.6309 106.854 74.0301 106.949 74.3997 107.118C74.7694 107.286 75.1021 107.527 75.379 107.824C75.6558 108.122 75.8714 108.471 76.0134 108.852C76.1554 109.233 76.2212 109.639 76.2067 110.045C76.1922 110.452 76.0979 110.851 75.9291 111.221C75.7603 111.591 75.5204 111.924 75.223 112.201C74.9257 112.478 74.5767 112.694 74.196 112.836L61.6152 117.529C61.2684 117.663 60.9 117.732 60.5282 117.733Z" fill="#B9BCFC"/>
<path d="M72.4179 243.196C72.4179 243.196 72.9048 238.3 74.5807 236.622C76.2566 234.945 83.1076 233.845 88.86 237.291C94.6124 240.737 97.919 240.057 94.8163 243.196C91.7136 246.336 83.3115 240.725 83.3115 240.725C83.3115 240.725 95.6769 246.268 93.967 249.895C92.2571 253.522 83.7758 246.03 81.8847 247.979C79.9936 249.929 93.5368 253.307 91.1927 255.653C88.8487 257.999 77.74 250.609 77.74 253.386C77.74 256.163 90.0037 257.648 86.3008 259.96C85.3496 260.561 70.2098 259.711 68.3866 257.886C68.3866 257.886 66.6881 253.091 67.8545 250.394C67.8545 250.394 67.2543 247.424 68.398 246.268C69.6648 245.152 71.0081 244.125 72.4179 243.196Z" fill="#FC7575"/>
<path d="M192.948 152.836C192.948 152.836 192.619 209.51 186.335 220.844C181.805 228.903 148.966 258.079 137.835 267.849C135.241 269.866 132.484 271.664 129.591 273.222C129.591 273.222 120.181 272.927 115.391 274.616C110.602 276.305 103.649 275.897 104.611 279.15C105.574 282.403 111.7 280.657 113.75 279.932C114.051 279.823 114.381 279.826 114.681 279.94C114.98 280.055 115.228 280.273 115.38 280.555C118.256 284.624 110.851 287.356 106.106 289.011C96.5149 292.411 88.192 296.22 90.604 297.557C93.0159 298.895 109.515 292.105 112.934 290.892C116.354 289.68 100.161 299.099 93.616 303.361C87.0709 307.622 91.6571 309.028 95.1675 306.466C98.6778 303.905 114.78 294.463 115.188 295.823C115.595 297.183 97.5908 308.654 98.5873 311.986C99.5837 315.319 101.984 311.136 104.736 309.243C107.488 307.35 115.199 298.668 117.815 300.107C117.815 300.107 108.982 313.392 110.885 313.074C111.836 312.904 138.062 290.042 142.251 286.143C162.77 270.887 208.337 239.864 210.952 235.137C215.278 227.396 227.032 165.259 227.032 165.259L192.948 152.836Z" fill="#FC7575"/>
<path d="M223.759 181.932L192.551 170.36C192.302 177.319 191.906 185.503 191.272 193.324C198.507 195.273 210.295 198.798 219.332 203.253C220.928 195.874 222.457 188.337 223.759 181.932Z" fill="#FD5E5A"/>
<path d="M190.264 118.209C188.475 129.544 185.112 186.704 185.338 186.738L227.315 191.669C230.271 173.375 229.138 154.99 227.032 136.129C225.832 125.305 224.62 110.592 215.788 103.043C203.671 92.6721 192.495 104.063 190.264 118.209Z" fill="#F9B406"/>
<path d="M188.486 120.306C186.55 135.2 184.704 169.362 185.361 186.738C185.361 186.41 188.248 158.515 188.067 160.295C191.645 123.604 190.332 117.121 194.861 108.484C199.255 100.051 206.899 96.6732 215.776 103.032C203.048 91.5273 190.751 103.361 188.486 120.306Z" fill="#FFF7CF"/>
<defs>
<linearGradient id="paint0_linear_3_540" x1="182.856" y1="265.605" x2="223.015" y2="706.216" gradientUnits="userSpaceOnUse">
<stop stop-color="#006363"/>
<stop offset="1" stop-color="#009D9E"/>
</linearGradient>
</defs>
</svg>
