<svg width="392" height="292" viewBox="0 0 392 292" fill="none" xmlns="http://www.w3.org/2000/svg">
<path d="M0 10C0 4.47715 4.47715 0 10 0H382C387.523 0 392 4.47715 392 10V292H0V10Z" fill="white"/>
<g clip-path="url(#clip0_10_752)">
<path d="M284.526 284.031C284.064 269.162 281.114 256.884 277.07 246.403C274.303 239.279 270.645 232.912 266.135 228.752C262.95 225.867 259.085 224.425 254.877 222.815C250.669 221.205 246.764 220.532 240.383 224.185C232.951 228.444 227.999 236.858 225.002 244.356C221.789 252.31 220.082 260.218 219.146 269.158C213.545 269.889 206.292 270.653 200.062 271.464C196.368 271.963 192.415 272.465 190.33 276.351C189.561 275.011 187.28 275.102 186.56 273.489C185.593 271.331 186.85 267.963 187.049 265.116C197.439 258.053 193.872 239.541 187.495 236.192C184.179 234.503 178.555 236.794 175.915 241.901C172.683 248.101 173.348 256.61 176.079 261.253C176.393 261.794 177.221 262.319 177.329 262.897C177.727 265.017 176.134 268.035 176.222 270.509C170.8 270.212 161.238 274.562 156.716 279.886C155.705 277.603 154.698 275.342 152.568 274.821C151.374 272.241 150.001 269.9 148.791 267.339C149.985 266.197 151.645 265.238 152.855 264.092C152.935 263.388 152.489 263.502 152.568 262.798C150.264 263.765 147.393 265.896 145.236 267.483C143.548 266.84 140.025 269.462 139.169 271.521C137.215 272.221 134.914 275.011 132.74 275.708C131.463 276.122 130.014 274.733 128.899 274.653C123.179 274.273 117.96 280.743 116.873 286.322C113.88 288.225 110.902 290.093 107.948 291.992H164.913C164.69 291.485 164.475 290.96 164.268 290.417C166.636 289.054 168.762 287.562 171.433 286.352C171.533 288.198 171.672 290.105 171.791 291.992H175.406C175.143 289.804 174.884 287.608 174.717 285.279C176.397 285.199 178.427 284.655 179.096 286.154C179.765 287.654 179.18 290.044 179.454 291.992H187.38C187.369 291.711 187.415 291.431 187.515 291.167C187.727 291.429 187.92 291.705 188.092 291.992H204.752C205.739 290.47 206.778 289.039 207.14 288.742C207.793 288.202 209.051 287.89 210.026 287.361C212.725 285.888 215.802 283.833 218.641 282.626C218.744 285.877 218.987 288.993 219.321 291.992H227.462C227.362 291.231 227.267 290.47 227.179 289.709C228.202 289.237 228.62 289.709 229.568 289.359C229.671 290.257 229.791 291.136 229.914 292.023H232.247C232.151 291.235 232.068 290.436 232.008 289.61C233.628 289.203 234.862 289.412 236.275 289.344C236.138 290.227 236.138 291.124 236.275 292.008H244.889C245.01 291.684 245.175 291.377 245.379 291.094C245.41 291.408 245.489 291.716 245.614 292.008H259.976C259.383 290.546 259.144 289.115 259.845 287.821C265.04 286.531 269.721 286.097 274.904 284.853C275.069 287.283 275.164 289.667 275.191 292.004H282.253C282.122 282.216 281.019 272.463 278.961 262.875C278.626 261.352 278.057 259.773 278.487 258.753C281.154 267.175 282.945 280.51 282.499 292.004H284.601C284.638 289.413 284.613 286.756 284.526 284.031ZM122.363 286.908C122.255 286.527 122.665 286.394 122.478 286.002C123.035 285.656 123.083 286.074 123.087 286.562L122.363 286.908ZM123.851 282.101C123.879 281.542 125.237 280.012 125.444 280.982C124.86 281.281 124.324 281.658 123.851 282.101ZM162.369 287.631C161.768 286.588 160.832 286.059 160.287 284.94C162.675 280.868 167.946 280.373 171.174 280.404C171.23 281.119 171.282 281.831 171.338 282.543C167.922 284.031 165.434 285.976 162.369 287.631ZM175.585 279.35C175.298 278.859 174.478 279.201 174.224 278.665C174.829 278.535 176.087 278.44 175.585 279.35ZM176.309 279.022C177.153 279.182 178.3 278.851 178.618 279.852C177.699 279.962 176.298 279.715 176.309 279.022ZM179.733 250.137C179.805 249.589 179.391 248.812 179.789 248.416C179.984 248.778 180.27 248.995 180.258 249.688C180.027 249.813 180.027 250.045 179.733 250.137ZM181.158 271.418C180.561 269.934 181.604 267.826 181.496 266.01C182.73 266.517 181.699 270.094 181.158 271.418ZM181.668 245.977C181.425 245.216 180.672 245.28 180.43 244.519C180.915 243.758 180.907 242.757 181.946 242.236C182.273 243.046 182.456 245.147 181.668 245.977ZM184.852 245.912C184.916 244.85 184.518 244.542 184.494 243.629C185.151 243.716 185.616 244.12 185.728 245.102C185.386 245.33 185.437 245.783 184.848 245.912H184.852ZM189.529 290.52C188.908 288.963 187.619 288.445 187.181 286.611C187.603 286.371 187.467 285.831 188.045 285.675C188.788 286.767 189.616 287.805 190.521 288.78C190.38 289.443 190.033 290.049 189.525 290.52H189.529ZM208.776 280.484C207.905 281.865 205.628 285.812 204.569 286.718C203.183 287.859 201.539 287.954 199.899 289.237C197.877 285.051 195.329 281.743 192.734 278.524C193.829 276.377 195.755 276.134 197.399 275.905C202.447 275.228 207.773 274.722 212.582 273.968C211.428 276.2 210.157 278.375 208.772 280.484H208.776ZM218.728 278.649C216.244 280.172 213.505 281.538 211.025 283.053C211.567 281.755 212.618 280.084 213.836 278.151C215.269 275.867 216.622 272.69 218.891 273.234C218.733 275.035 218.676 276.843 218.72 278.649H218.728ZM234.141 241.307C235.046 239.686 236.056 238.122 237.167 236.622C235.34 240.238 234.153 244.211 232.366 247.823C231.395 246.213 233.015 243.397 234.141 241.307ZM226.682 272.515C227.478 272.427 228.771 271.582 228.76 272.842C228.157 273.427 227.423 273.873 226.614 274.147C226.529 273.602 226.549 273.046 226.674 272.507L226.682 272.515ZM228.672 284.312C228.202 284.202 227.545 284.385 226.833 284.659C226.614 282.425 226.542 280.278 226.546 278.189C227.068 277.641 228.091 277.397 228.692 276.899C228.775 279.365 229.305 282.87 228.652 284.309L228.672 284.312ZM229.416 263.708C228.549 263.936 228.186 264.469 227.426 264.77C227.928 259.967 228.799 255.373 230.364 251.168C232.119 254.11 229.444 259.491 229.396 263.704L229.416 263.708ZM231.24 283.677C231.176 280.963 230.917 278.128 231.021 275.513C233.321 274.436 235.256 273.131 237.485 272.008C237.719 275.307 237.955 278.597 238.194 281.88C235.873 283.235 233.513 283.03 231.22 283.673L231.24 283.677ZM238.636 267.247C236.147 267.283 233.665 267.525 231.22 267.97C231.857 264.047 231.992 259.811 232.585 255.845C235.109 258.783 236.625 263.407 238.954 266.696C238.946 266.943 238.918 267.186 238.616 267.244L238.636 267.247ZM244.655 280.921L243.385 281.431L243.301 280.236C242.784 280.335 242.338 280.324 241.82 280.423C241.498 277.622 240.925 274.052 241.152 271.091C242.035 274.037 246.167 277.367 244.635 280.918L244.655 280.921ZM246.796 269.15C246.597 268.389 246.999 267.54 246.637 266.947C246.275 266.353 245.26 266.718 244.726 266.307C243.743 265.546 243.098 263.445 242.183 262.049C239.5 257.992 236.61 253.935 234.054 250.315C235.248 245.444 238.146 237.559 241.617 233.502C243.273 231.557 244.925 230.742 246.681 231.108C247.027 244.523 248.142 258.395 248.273 271.632C247.887 270.684 247.095 270.383 246.776 269.146L246.796 269.15ZM272.273 241.616C272.317 241.848 272.627 241.943 272.317 242.24C272.261 242 271.958 241.905 272.261 241.612L272.273 241.616ZM249.519 231.629C254.415 232.798 258.523 236.196 261.744 240.729C262.452 241.73 264.725 244.653 264.729 245.977C264.729 246.944 262.89 250.688 262.194 252.374C259.499 258.844 256.461 266.361 254.033 271.529C252.588 258.117 250.988 244.98 249.519 231.629ZM274.2 279.981C269.423 279.848 264.562 279.833 259.837 279.647C259.813 278.193 258.448 277.009 258.432 275.597C258.432 274.277 259.873 270.996 260.422 269.348C262.528 262.878 264.674 255.647 266.903 250.137C270.087 256.941 272.556 266.121 273.917 275.822C274.108 277.276 274.745 278.92 274.192 279.993L274.2 279.981ZM276.938 255.077C275.983 250.228 273.754 246.373 272.703 242.479C274.55 246.148 276.285 250.019 277.48 254.848L276.938 255.077Z" fill="url(#paint0_linear_10_752)"/>
<path d="M277.36 160.522C276.93 151.149 275.625 143.164 272.376 136.002C270.557 131.994 268.364 129.193 265.609 125.958C261.099 120.661 254.423 114.416 244.595 116.931V114.206C244.651 113.757 243.6 114.366 243.882 113.696C243.962 108.284 242.529 104.323 239.607 101.777C240.801 101.678 241.709 99.7101 241.924 98.8842C242.081 97.9791 242.141 97.0609 242.103 96.1441C242.103 90.9682 240.666 85.2444 240.32 79.2884C239.989 73.5569 241.179 67.8977 241.39 62.6001C241.597 61.8389 240.395 62.4174 240.678 61.5763C241.43 59.0036 241.056 56.2863 243.349 55.959C244.316 55.822 246.287 56.8382 247.624 57.3215C249.041 57.8353 250.681 58.9542 251.9 58.6839C252.341 58.5435 252.72 58.2661 252.978 57.8958C253.235 57.5256 253.356 57.0836 253.321 56.6403C253.217 55.5861 251.601 55.038 249.937 54.4253C246.478 53.1542 241.347 51.2323 239.253 54.7678C237.828 52.8954 236.327 49.71 234.444 48.4655C233.931 48.1268 233.115 48.1724 232.486 47.7842C231.689 47.3009 231.14 46.2619 230.348 45.9118C228.959 45.2839 226.658 44.9908 224.647 44.3895C222.757 43.8148 220.627 43.0461 218.947 42.6845C217.976 42.479 216.837 42.6541 215.922 42.3458C215.169 42.0908 214.556 41.2041 213.784 40.9833C213.012 40.7626 212.152 41.0709 211.467 40.8121C210.245 40.3516 210.213 37.482 209.875 35.7048C209.553 34.0607 209.127 32.3633 209.162 30.9361C209.204 30.0041 209.4 29.0843 209.744 28.2112C209.871 28.3178 210.038 28.4205 210.189 28.5385C210.518 27.7903 210.643 26.9744 210.552 26.1675C210.729 25.7263 210.862 25.2701 210.95 24.805C211.097 23.9069 210.914 22.7157 210.95 21.6234C211.042 21.1395 211.096 20.6498 211.113 20.1582C211.177 18.849 211.849 17.772 211.686 16.4248C211.555 15.3706 211.841 14.2364 211.555 13.2469C211.416 12.6554 211.222 12.0771 210.974 11.5191C211.109 11.5841 211.258 11.6179 211.41 11.6179C211.561 11.6179 211.71 11.5841 211.845 11.5191C212.099 11.3809 212.316 11.188 212.478 10.9559C212.08 11.2527 211.519 11.4088 211.24 11.1462C211.26 11.0929 211.22 11.0206 211.101 10.8303C210.874 10.4802 211.002 10.3584 210.703 10.1262C210.663 10.0044 210.627 9.88265 210.588 9.76467C210.317 8.62052 209.655 7.59567 208.705 6.85326C208.405 6.64209 208.077 6.47055 207.729 6.34329C207.666 6.29001 207.598 6.24054 207.53 6.19106C207.433 5.94385 207.276 5.72213 207.073 5.54408C206.932 5.39428 206.859 5.19721 206.87 4.99605C206.967 4.93954 207.056 4.8718 207.136 4.79435C206.946 4.88736 206.737 4.94178 206.523 4.95419C206.404 4.90279 206.295 4.83196 206.201 4.74487C206.02 4.56206 205.79 4.43039 205.536 4.36429C205.436 4.17384 205.322 3.99066 205.194 3.81626C205.324 3.73132 205.439 3.62579 205.532 3.50419C205.391 3.60144 205.231 3.67244 205.062 3.71351H205.042L204.987 3.74395C204.611 3.80464 204.228 3.80464 203.852 3.74395C203.689 3.62978 203.796 3.36338 203.514 3.34435C203.204 3.33703 202.906 3.22821 202.67 3.03608C202.156 2.65551 201.301 2.7811 200.68 2.86102C199.855 2.96377 199.119 2.72782 198.291 2.60223C198.068 2.57559 198.108 2.88385 197.869 2.82677C197.479 2.76644 197.096 2.67347 196.723 2.54895C196.355 2.48462 195.977 2.52842 195.636 2.67454C195.238 2.62126 194.84 2.55275 194.442 2.46522C193.427 2.29602 192.514 1.77414 191.878 1C192.106 1.6973 192.575 2.29988 193.208 2.70879C192.859 2.62666 192.516 2.5237 192.181 2.40052C192.181 2.62506 192.181 2.80013 191.998 2.80774C191.484 2.66142 191.033 2.36124 190.712 1.95144C190.808 2.23624 190.964 2.49956 191.169 2.72577C191.374 2.95198 191.625 3.13645 191.906 3.26823V3.28346C191.32 3.19739 190.741 3.07019 190.174 2.90288C190.741 3.28588 191.36 3.59318 192.013 3.81626C191.902 3.9038 191.755 3.98372 191.739 4.05983C192.037 4.01365 192.34 4.01365 192.638 4.05983L192.945 4.17781V4.19684H192.921C192.686 4.26534 192.455 4.33765 192.224 4.41377C191.221 4.12834 190.294 4.46705 189.569 4.52414C188.845 4.58122 188.021 4.21968 187.388 3.60314C187.579 4.00171 187.85 4.36101 188.184 4.66114C188.269 4.73337 188.361 4.79831 188.459 4.85524C188.387 4.87314 188.325 4.91503 188.284 4.97322C188.399 5.04553 189.251 5.24723 189.661 5.44894C189.35 5.60497 189.052 5.76481 188.765 5.93227C187.965 5.9804 187.162 5.92536 186.377 5.76862C186.375 5.78887 186.375 5.80927 186.377 5.82951C185.964 5.74363 185.572 5.58626 185.218 5.36521C185.657 5.90162 186.273 6.27996 186.966 6.43844C187.177 6.49933 187.388 6.5488 187.599 6.59067C187.299 6.69045 186.984 6.74064 186.667 6.73909C185.76 6.31665 184.697 5.99697 183.694 6.25956C184.824 6.35471 185.708 6.90654 186.651 7.43935L186.624 7.46218C186.308 7.51985 186.001 7.61179 185.708 7.7362C185.082 8.02999 184.518 8.43118 184.044 8.91979C183.821 9.12911 183.61 9.33081 183.391 9.52871C183.089 9.7837 182.993 9.94735 182.738 10.1414C182.336 10.5197 181.849 10.8048 181.313 10.9749C181.031 11.0517 180.734 11.0659 180.445 11.0165C180.156 10.967 179.882 10.8552 179.645 10.6895C179.842 10.9534 180.104 11.167 180.407 11.3117C180.71 11.4563 181.046 11.5276 181.385 11.5191C181.677 11.5135 181.966 11.4687 182.245 11.3859C181.986 11.6105 181.739 11.8312 181.476 12.0367C181.027 12.383 180.553 12.7598 179.932 12.7446C180.529 12.9691 181.218 12.7446 181.771 12.4858C182.105 12.3412 182.428 12.1699 182.738 12.0025C182.886 11.9796 183.037 11.9606 183.184 11.9492C183.269 11.8335 183.368 11.7275 183.479 11.6333L183.857 11.4849C183.857 11.5344 183.829 11.5838 183.813 11.6333C183.535 11.8731 183.264 12.1128 182.989 12.3298C182.89 12.3983 182.794 12.4744 182.703 12.5505C182.285 12.8893 181.781 13.1154 181.242 13.2051C180.674 13.2484 180.106 13.1333 179.606 12.874C180.045 13.3441 180.639 13.6569 181.289 13.7607C181.98 13.8236 182.674 13.6842 183.28 13.3611C183.375 13.3154 183.467 13.266 183.558 13.2165C183.455 13.4002 183.332 13.5736 183.192 13.7341C182.956 13.9712 182.655 14.1411 182.324 14.225C181.62 14.4267 180.756 14.2973 179.936 14.225C180.7 14.5409 181.488 14.9215 182.456 14.8492C182.801 14.8153 183.135 14.7156 183.439 14.5561C183.439 14.6627 183.415 14.7692 183.399 14.8796C182.992 15.3555 182.517 15.7732 181.986 16.1203C182.466 16.0059 182.919 15.8044 183.32 15.5266C183.296 15.694 183.272 15.8615 183.244 16.0366C182.906 16.4856 182.587 16.9423 182.225 17.38C182.531 17.1893 182.826 16.9822 183.109 16.7597C183.085 16.8814 183.057 17.0032 183.029 17.1402C182.955 17.1727 182.879 17.2007 182.802 17.224C182.871 17.2297 182.94 17.2297 183.009 17.224L182.985 17.3381C182.726 18.3619 181.99 19.2829 181.914 20.3827C181.871 21.0754 182.802 21.4484 181.914 22.4264C182.161 22.7614 182.989 22.533 182.985 23.1077C182.153 25.3721 183.24 28.4586 183.698 30.43C183.929 31.4347 183.905 32.5117 184.231 33.4746C184.597 34.5744 185.21 35.4536 185.298 36.1995C185.409 37.1205 184.9 38.3155 185.298 39.0957C186.249 40.9453 189.191 39.5866 190.644 40.7969C189.999 41.7864 188.61 41.4553 187.794 41.4781C186.528 41.5123 185.206 41.3563 184.052 41.4781C180.215 41.8853 177.42 43.7996 175.505 45.7367C174.872 46.3723 174.263 47.065 173.543 47.7766C172.233 49.082 170.318 50.5967 169.626 52.0353C167.476 56.4994 168.181 62.8094 167.846 69.0623C167.687 72.0079 166.792 74.847 166.597 77.5758C166.449 79.7184 167.138 82.0551 165.884 83.8781C165.016 84.3957 164.025 83.2197 163.038 83.1969C161.398 83.155 159.292 84.5327 157.158 84.898C155.912 85.1112 154.336 84.9437 152.887 85.0693C151.334 85.2025 149.941 85.6364 148.612 85.5793C146.187 85.4727 144.32 84.8942 142.019 85.7505C141.621 86.485 141.546 87.5659 141.307 88.4755C138.998 88.856 138.64 90.7285 137.211 92.2203C135.284 94.2298 132.084 96.0261 131.156 97.6702C129.838 99.9803 130.42 102.313 130.977 103.969C131.228 104.707 131.256 105.681 131.514 106.184C132.37 107.854 134.472 109.293 136.498 109.757C135.989 110.461 136.299 111.949 135.965 112.821C131.865 113.418 126.809 113.361 123.497 115.036C121.905 115.843 120.058 117.917 119.047 119.462C116.734 122.998 116.499 127.074 116.376 132.402C116.252 137.669 114.457 143.214 112.988 147.214C112.375 148.888 112.14 150.57 111.567 151.982C111.201 152.869 110.524 153.657 110.142 154.536C109.7 155.548 109.469 156.568 109.071 157.6C103.781 171.308 98.12 186.417 92.8495 199.345C90.063 198.139 85.5608 194.778 81.0944 195.768C79.4265 196.148 79.104 197.72 77.5316 198.492C77.253 199.916 76.1344 199.931 76.1065 201.389C76.0429 204.608 82.5076 208.947 84.8323 210.583C85.9987 211.402 88.1562 211.957 87.6825 213.48C86.1738 213.86 80.9153 211.596 81.4487 213.99C81.7393 215.261 85.1189 214.8 86.4365 215.512C86.7431 215.733 86.7112 216.273 87.3282 216.707C87.7263 216.977 88.7095 216.962 89.4659 217.384C90.2222 217.807 90.3974 218.412 90.891 218.579C91.671 218.852 92.5138 218.916 93.3293 218.766C94.1447 218.616 94.9021 218.257 95.5206 217.727C102.264 219.679 109.851 220.836 117.415 221.982C118.876 227.089 124.313 230.967 129.703 227.774C130.754 227.15 132.024 225.083 133.286 224.878C135.4 224.528 137.792 226.149 139.699 225.902C140.662 227.485 144.201 228.337 145.753 226.921C147.903 227.428 150.797 228.105 153.054 227.941C152.927 227.31 153.361 227.211 153.233 226.583C151.999 226.058 150.355 225.924 149.137 225.388C150.092 222.389 151.207 219.535 152.162 216.536C154.153 215.082 154.949 212.482 155.745 209.895C160.442 212.939 169.853 212.821 174.98 210.233C175.087 212.517 176.799 214.606 176.572 216.703C176.513 217.274 175.776 218.111 175.505 218.743C173.248 224.197 173.236 232.288 176.751 236.455C179.621 239.853 185.111 239.309 188.148 236.284C193.968 230.461 196.042 212.566 185.656 210.572C185.258 208.106 183.821 205.586 184.585 203.25C185.159 201.503 187.336 200.669 187.969 199.162C190.234 201.826 194.036 200.685 197.586 199.672C203.577 197.971 210.544 195.866 215.934 194.394C217.446 201.705 219.624 207.798 223.234 213.297C226.606 218.431 231.9 223.489 239.265 224.022C245.586 224.482 249.217 222.362 253.157 219.424C257.098 216.486 260.649 213.891 263.487 210.401C267.512 205.453 270.577 199.105 272.747 192.514C275.895 182.934 277.906 172.351 277.36 160.522ZM102.467 216.201C100.079 215.82 97.7896 215.337 95.3414 215.009C95.4728 214.484 94.8518 214.682 94.9872 214.157C97.6463 214.157 99.8078 214.659 102.467 214.671V216.201ZM103.534 191.341C102.654 193.625 101.671 195.806 101.221 198.492C100.425 198.831 99.7919 199.284 99.7959 200.365C98.5658 200.673 97.8055 201.925 96.4123 201.56C98.9082 194.013 101.866 186.908 104.605 179.593C105.616 183.943 101.543 187.654 103.534 191.341ZM122.769 219.607C122.916 219.127 122.518 219.165 122.59 218.754H123.302C123.338 219.245 123.326 219.687 122.769 219.607ZM124.361 222.842C124.862 223.058 125.404 223.174 125.953 223.184C125.842 224.254 124.441 223.386 124.373 222.842H124.361ZM184.916 228.802C185.485 228.657 185.465 229.072 185.807 229.144C185.814 229.518 185.719 229.887 185.531 230.216C185.343 230.544 185.07 230.82 184.737 231.017C184.709 230.179 185.063 229.726 184.928 228.802H184.916ZM190.616 163.757C190.823 163.731 190.931 163.795 190.971 163.929C190.652 165.725 190.425 167.609 190.079 169.375C188.879 168.627 187.805 167.709 186.894 166.653C187.909 165.474 189.474 164.811 190.628 163.757H190.616ZM185.27 163.247V162.056C186.001 161.964 186.718 161.791 187.408 161.542C187.515 162.204 186.114 162.905 185.282 163.247H185.27ZM190.258 176.016C190.815 176.054 191.564 175.901 191.85 176.187C191.492 177.549 191.002 178.782 190.604 180.103H189.179C189.422 178.611 190.186 177.641 190.27 176.016H190.258ZM192.929 162.056C193.393 161.843 193.815 161.555 194.175 161.204C194.382 161.177 194.493 161.242 194.533 161.375C194.232 164.977 193.701 168.559 192.941 172.099C190.19 171.22 193.351 165.028 192.941 162.056H192.929ZM193.108 155.415V152.85C193.777 152.979 193.96 152.641 194.533 152.679C194.71 153.519 194.77 154.377 194.712 155.232C194.135 155.251 193.837 155.533 193.14 155.415H193.108ZM184.203 153.893C186.87 154.498 188.741 153.691 191.329 153.383V155.765C188.793 155.952 186.552 156.412 184.024 156.618C184.124 155.723 183.845 154.494 184.215 153.881L184.203 153.893ZM179.028 154.916C179.673 154.753 179.279 155.586 179.387 155.936H178.674C178.851 155.612 178.977 155.264 179.048 154.905L179.028 154.916ZM177.436 175.848C178.63 176.107 179.283 177.641 179.215 179.422C176.982 179.726 175.159 180.423 172.982 180.784C172.927 179.476 172.987 178.166 173.161 176.868C174.59 176.937 176.242 175.586 177.448 175.848H177.436ZM173.515 171.08C173.806 171.03 173.822 171.239 174.052 171.251C174.104 171.7 173.806 171.806 173.34 171.761C173.276 171.403 173.471 171.308 173.527 171.08H173.515ZM136.295 106.545C136.224 106.104 135.762 106.031 135.758 105.525C136.184 105.247 137.024 105.925 137.35 105.011C137.473 104.269 136.837 104.25 136.817 103.649C137.732 101.948 140.316 98.3933 142.159 101.609C139.484 102.545 139.161 105.757 136.307 106.545H136.295ZM144.854 159.32C144.611 159.266 144.706 158.893 144.675 158.639C145.3 158.498 144.973 159.206 144.854 159.32ZM146.991 155.404C146.215 155.522 145.988 155.114 145.212 155.232C145.406 154.507 145.525 153.765 145.566 153.017C146.416 152.69 147.322 152.517 148.237 152.507C147.947 153.611 147.202 154.254 146.991 155.415V155.404ZM169.431 203.25C166.366 204.624 161.326 206.393 158.747 203.592C159.18 202.306 160.032 201.415 160.526 200.167C163.567 200.441 166.075 201.217 169.431 201.187V203.25ZM162.13 196.78C163.123 192.847 164.681 189.065 166.76 185.541C167.512 185.579 167.91 185.279 168.543 185.199C169.053 185.96 169.029 187.125 169.076 188.095C169.22 191.121 169.188 194.496 169.256 197.632C166.612 197.613 164.479 197.092 162.13 196.791V196.78ZM156.43 111.302C150.546 111.557 144.651 111.622 139.512 112.494C139.75 110.249 140.543 108.09 141.824 106.195C142.258 107.31 141.673 109.415 143.787 108.916C144.846 107.158 144.953 105.381 145.925 103.969C155.431 103.181 164.785 102.249 174.064 101.244H174.431C173.905 104.89 171.74 107.664 171.76 111.291C167.389 111.538 161.832 111.078 156.43 111.314V111.302ZM172.46 203.592C172.663 202.991 173.471 202.968 173.706 202.397C174.251 203.052 173.041 203.467 172.46 203.604V203.592ZM174.419 202.397C174.359 201.769 175.673 200.989 176.556 200.696C176.341 201.75 175.227 201.918 174.431 202.409L174.419 202.397ZM176.735 187.935C175.939 190.192 177.193 192.738 176.556 194.748C176.039 196.38 174.064 196.696 172.46 197.301C172.44 192.799 172.818 188.674 172.814 184.19C175.179 183.498 177.731 182.988 180.119 182.318C180.641 184.012 180.023 186.082 179.94 187.768C178.869 187.717 177.795 187.773 176.735 187.935ZM179.92 228.802C179.522 228.623 179.852 227.732 179.741 227.279C180.031 227.234 180.047 227.443 180.278 227.451C180.354 228.063 180.099 228.387 179.94 228.802H179.92ZM180.278 212.113C180.246 210.424 179.104 208.947 179.566 207.348C180.195 208.327 181.433 211.139 180.298 212.113H180.278ZM182.412 233.399C181.389 233.399 181.325 232.508 180.82 232.036C180.995 231.241 181.711 230.959 181.886 230.164C182.711 230.56 182.687 232.543 182.432 233.399H182.412ZM184.004 184.019C184.532 184.324 184.915 184.812 185.075 185.382C184.653 185.762 184.502 186.424 184.183 186.904C183.801 186.287 184.152 184.933 184.036 184.019H184.004ZM185.107 191.669C184.546 191.749 184.633 191.208 184.215 191.155C184.502 189.332 185.692 188.369 186.174 186.729C186.43 186.844 186.657 187.01 186.842 187.216C187.026 187.421 187.163 187.661 187.245 187.92C186.459 189.13 185.745 190.382 185.107 191.669ZM184.749 177.877C183.331 175.997 184.351 171.787 184.036 168.849C184.968 169.668 188.873 172.621 189.024 173.618C189.175 174.615 187.881 176.32 188.132 177.705C186.982 177.207 185.951 177.915 184.749 177.892V177.877ZM189.024 184.175C188.355 184.133 188.327 183.479 188.132 182.984C188.694 182.9 188.761 183.288 189.378 183.155C189.426 183.677 188.976 183.677 189.024 184.19V184.175ZM194.732 196.791C193.14 197.229 191.297 197.766 190.099 196.281C192.336 192.403 194.525 188.476 196.157 184.019C197.813 184.552 199.382 184.019 200.787 184.529C201.858 184.91 204.31 187.574 205.237 188.445C206.706 189.771 208.075 191.194 209.334 192.704C204.684 193.853 199.581 195.44 194.732 196.791ZM210.217 188.624C208.924 187.391 207.801 186.341 207.192 185.389C209.664 185.804 212.367 185.998 214.847 186.413C214.926 187.955 215.105 189.49 215.384 191.01C213.263 192.308 211.746 190.078 210.217 188.624ZM214.493 183.007C211.706 182.98 208.621 182.299 205.942 181.983C204.975 181.873 203.753 182.052 203.092 181.816C202.339 181.542 198.434 178.01 198.283 177.047C198.164 176.252 199.079 174.002 199.354 172.788C200.384 168.138 200.979 163.409 201.133 158.658C206.499 157.714 211.619 156.534 216.805 155.423C215.364 163.285 214.031 172.735 214.493 182.999V183.007ZM217.876 151.845C213.028 152.606 208.613 153.775 203.804 154.57C204.884 153.607 206.015 152.698 207.192 151.845C208.243 151.111 209.672 149.783 210.751 149.463C212.884 148.827 215.464 150.186 218.41 149.973C218.294 150.609 218.115 151.233 217.876 151.838V151.845ZM251.712 123.922C254.861 124.965 257.604 127.751 259.547 130.392C260.363 131.496 262.015 133.608 262.042 134.308C262.074 135.286 259.654 139.301 259.013 140.439C255.829 146.148 252.174 152.998 249.396 158.326C248.504 147.716 248.743 136.021 248.15 125.125C248.962 125.133 250.813 123.614 251.716 123.926L251.712 123.922ZM243.52 157.124C243.381 156.313 243.799 156.028 243.695 155.251C244.4 156.123 243.576 158.406 243.874 160.02C242.859 159.457 242.437 158.326 241.916 157.295C242.636 157.417 242.935 157.124 243.524 157.116L243.52 157.124ZM237.999 105.365C240.188 106.96 240.347 110.496 240.491 114.05C239.44 113.951 239.05 114.488 237.999 114.389V105.365ZM236.928 139.237C237.943 138.959 239.169 138.883 240.137 138.555C240.284 142.335 240.029 147.198 240.137 151.495C239.34 151.537 238.759 151.765 237.82 151.663C236.028 148.957 237.326 143.29 236.928 139.237ZM239.957 164.948C239.794 165.592 239.448 166.052 239.424 166.821C238.405 166.037 238.23 164.465 238.353 162.566C239.125 163.126 239.213 164.362 239.961 164.948H239.957ZM237.82 161.523C237.39 161.596 237.422 161.215 236.928 161.356V160.332C237.533 160.461 237.752 160.93 237.824 161.542L237.82 161.523ZM236.749 176.849C237.25 176.758 237.676 176.598 238.174 176.51V175.487H239.424C241.132 177.919 237.41 182.086 236.749 184.853C236.335 182.482 236.637 179.311 236.753 176.868L236.749 176.849ZM232.832 140.07C232.832 141.018 230.842 140.831 230.34 140.751C230.682 140.074 231.873 140.188 232.836 140.089L232.832 140.07ZM232.832 152.161C232.513 154.464 232.497 158.779 233.365 161.013C233.429 161.755 232.287 161.344 231.944 161.695C232.657 165.812 229.898 167.403 230.873 171.232C229.52 171.639 228.354 172.225 226.777 172.423C226.777 164.811 228.879 158.509 230.161 152.671C231.027 152.398 231.926 152.233 232.836 152.18L232.832 152.161ZM233.19 176.849V185.363C230.985 185.199 229.046 184.78 226.777 184.681C226.499 182.508 226.55 180.019 226.419 177.702C228.66 177.481 230.901 176.507 233.194 176.868L233.19 176.849ZM227.844 146.022C228.58 146.156 228.76 145.76 229.436 145.851C229.707 146.494 229.89 146.955 229.615 147.724C228.648 147.857 228.234 147.457 227.299 147.556C227.41 146.993 227.792 146.673 227.848 146.049L227.844 146.022ZM227.669 153.173C227.904 154.604 226.383 153.779 225.531 153.855C225.782 153.231 226.976 153.447 227.673 153.2L227.669 153.173ZM224.285 157.6C225.253 157.47 225.726 157.813 226.598 157.771C225.439 162.928 224.724 168.167 224.46 173.435C223.525 173.435 223.155 174.002 222.148 173.949C222.412 168.463 223.128 163.005 224.289 157.626L224.285 157.6ZM222.148 178.375C222.761 178.407 223.374 178.289 223.927 178.033C224.651 179.034 224.389 182.192 224.46 184.335C223.851 184.122 222.868 184.274 222.323 183.992C222.162 182.133 222.105 180.267 222.152 178.402L222.148 178.375ZM222.86 188.761C222.697 188.325 222.636 187.86 222.681 187.399C223.413 187.332 224.15 187.45 224.819 187.741C224.922 188.826 223.644 188.571 222.864 188.788L222.86 188.761ZM227.844 205.449C226.061 202.5 224.914 198.942 224.106 195.06C224.839 195.041 225.221 195.356 226.065 195.231C226.403 198.801 229.325 202.325 227.848 205.476L227.844 205.449ZM227.49 190.987C229.909 190.462 232.289 189.779 234.611 188.944C234.918 188.879 234.95 189.077 234.97 189.283C232.979 192.868 231.829 197.294 229.627 200.7C228.791 197.594 228.369 194.078 227.494 191.003L227.49 190.987ZM232.119 212.269C230.925 210.956 229.174 209.225 229.982 207.501C231.932 209.837 233.337 212.696 235.328 214.994C234.172 214.19 233.099 213.283 232.123 212.285L232.119 212.269ZM239.778 215.847C236.196 213.841 232.876 208.399 231.419 204.78C233.596 200.799 236.084 196.346 238.365 192.007C239.161 190.523 239.615 188.548 240.503 187.581C240.984 187.056 241.988 186.991 242.282 186.39C242.577 185.789 242.147 185.218 242.282 184.514C242.505 183.372 243.241 182.866 243.532 181.96C244.328 192.902 244.197 204.707 244.778 215.831C243.122 216.844 241.494 216.817 239.782 215.862L239.778 215.847ZM244.054 152.504C243.305 151.742 243.54 150.525 243.52 149.44C243.448 146.015 243.858 142.3 243.695 138.54C243.365 137.779 244.336 138.247 244.408 137.863C244.515 134.384 244.265 130.571 244.945 127.644C245.152 127.618 245.26 127.682 245.3 127.816C244.889 136.063 244.639 144.447 244.058 152.519L244.054 152.504ZM244.587 124.919C244.563 124.44 245.025 124.428 245.479 124.409C245.319 124.722 245.152 125.015 244.591 124.935L244.587 124.919ZM258.48 202.393C255.693 207.219 252.023 211.501 247.437 214.313C247.931 202.865 248.568 191.558 249.029 180.088C251.697 183.494 255.104 188.548 258.109 192.86C258.906 193.975 260.896 196.338 260.96 197.115C261.063 198.192 259.093 201.351 258.484 202.409L258.48 202.393ZM267.739 170.212C267.082 178.371 265.35 186.508 262.755 193.027C260.255 189.366 257.719 184.274 255.271 179.749C254.646 178.588 253.034 176.4 252.958 175.319C252.879 174.177 254.101 172.766 254.025 171.574C258.535 169.926 263.181 168.393 267.739 166.806C268.344 167.51 267.842 169.017 267.743 170.227L267.739 170.212ZM253.492 164.933C251.951 163.232 254.073 159.887 255.271 157.101C257.906 150.985 261.079 143.678 263.288 138.373C263.36 138.202 263.456 137.928 263.643 137.863C266.624 144.713 268.061 153.052 268.097 162.722C263.058 163.308 258.551 164.389 253.496 164.948L253.492 164.933ZM268.451 197.967C268.137 197.842 268.428 197.659 268.451 197.457C268.774 197.598 268.483 197.781 268.455 197.982L268.451 197.967ZM268.81 197.115C269.542 193.69 271.425 189.857 271.994 185.697H272.528C271.736 189.937 270.33 193.572 268.814 197.13L268.81 197.115ZM273.26 182.303C272.778 181.637 273.22 180.202 273.439 178.897C274.777 170.958 275.43 160.522 274.331 151.495C276.278 160.872 275.509 173.865 273.264 182.318L273.26 182.303Z" fill="black"/>
</g>
<defs>
<linearGradient id="paint0_linear_10_752" x1="196.281" y1="486.676" x2="196.281" y2="221.525" gradientUnits="userSpaceOnUse">
<stop stop-color="white"/>
<stop offset="0.74" stop-color="white"/>
<stop offset="0.78" stop-color="#F7F7F7"/>
<stop offset="0.84" stop-color="#E2E2E2"/>
<stop offset="0.92" stop-color="#C0C0C0"/>
<stop offset="1" stop-color="#929292"/>
</linearGradient>
<clipPath id="clip0_10_752">
<rect width="208.511" height="291" fill="white" transform="translate(76.1064 1)"/>
</clipPath>
</defs>
</svg>
